<?xml version="1.0" encoding="utf-8"?>
<!-- Generator: Adobe Illustrator 28.0.0, SVG Export Plug-In . SVG Version: 6.00 Build 0)  -->
<svg version="1.1" id="Layer_1" xmlns="http://www.w3.org/2000/svg" xmlns:xlink="http://www.w3.org/1999/xlink" x="0px" y="0px"
	 viewBox="0 0 216 216" style="enable-background:new 0 0 216 216;" xml:space="preserve">
<style type="text/css">
	.st0{fill-rule:evenodd;clip-rule:evenodd;fill:#386641;}
	.st1{fill-rule:evenodd;clip-rule:evenodd;fill:#A7C957;}
</style>
<g>
	<path class="st0" d="M0,31.26l0,153.49C0,202.01,13.99,216,31.26,216h153.49c17.26,0,31.26-13.99,31.26-31.26V31.26
		C216,13.99,202.01,0,184.74,0L31.26,0C13.99,0,0,13.99,0,31.26z"/>
	<path class="st1" d="M145.65,27.57l0.03,0l0.04,0l0.03,0l0.02,0l0.03,0l0.04,0.01l0.03,0l0.02,0.01l0.02,0l0.03,0.01l0.03,0.01
		l0.02,0.01l0.02,0.01l0.03,0.01l0.03,0.01l0.02,0.01l0.02,0.01l0.03,0.02l0.03,0.02l0.02,0.01l0.02,0.01l0.03,0.02l0.03,0.02
		l0.02,0.01l0.02,0.01l0.03,0.02l0.03,0.02l0.02,0.02l0.02,0.01l0.02,0.02l0.03,0.02l0.01,0.02c0.02,0.02,0.04,0.04,0.06,0.07l0,0
		l0.01,0.02l0.02,0.02l0,0.01l0,0l0.01,0.02l0.01,0.02l0,0.01l0,0l0.01,0.02l0.01,0.02l0,0.01l0,0l0.01,0.02l0.01,0.02l0,0.01l0,0
		l0.01,0.02l0.01,0.02l0,0.01l0,0.01l0.01,0.02l0.01,0.02l0,0l0,0.01l0.01,0.03l0.01,0.02l0,0l0,0.01l0.01,0.03l0.01,0.02l0,0
		l0,0.01l0.01,0.03l0,0.01l0,0l0,0.01l0.01,0.04l0,0.01l0,0l0,0.01l0.01,0.04l0,0.01l0,0l0,0.01l0.01,0.04l0,0.01l0,0l0,0.01l0,0.04
		l0,0.01v0l0,0.01l0,0.03l0,0.02l0,0l0,0v52.83l0,0l0,0l0,0.03l0,0.03l0,0.01l0,0l-0.33,5.54c0,0.05-0.01,0.11-0.02,0.16l-0.98,4.89
		c-0.01,0.07-0.03,0.13-0.06,0.19l-1.63,4.24c-0.03,0.07-0.06,0.15-0.11,0.21l-2.28,3.59c-0.05,0.07-0.1,0.14-0.16,0.2l-2.93,2.93
		c-0.06,0.06-0.13,0.12-0.2,0.16l-3.59,2.28c-0.07,0.04-0.14,0.08-0.21,0.11l-1.65,0.64l12.93,0l0.03,0c0.66,0,1.19,0.53,1.19,1.19
		v26.41v26.41l0,0l0,0l0,0.03l0,0.03l0,0.01v0l-0.33,5.54c0,0.05-0.01,0.11-0.02,0.16l-0.98,4.89c-0.01,0.07-0.03,0.13-0.06,0.19
		l-1.63,4.24c-0.03,0.07-0.06,0.14-0.11,0.21l-2.28,3.59c-0.05,0.07-0.1,0.14-0.16,0.2l-2.93,2.94c-0.06,0.06-0.13,0.12-0.2,0.16
		l-3.59,2.28c-0.07,0.04-0.14,0.08-0.21,0.11l-4.24,1.63c-0.06,0.02-0.13,0.04-0.19,0.06l-4.89,0.98c-0.05,0.01-0.11,0.02-0.16,0.02
		l-5.54,0.33l-0.02,0l-0.05,0l-26.41,0l-0.04,0l-0.03,0l-5.54-0.33c-0.06,0-0.11-0.01-0.16-0.02l-4.89-0.98
		c-0.07-0.01-0.13-0.03-0.19-0.06l-4.24-1.63c-0.07-0.03-0.14-0.06-0.21-0.11l-3.59-2.28c-0.07-0.05-0.14-0.1-0.2-0.16l-2.94-2.94
		c-0.06-0.06-0.12-0.13-0.16-0.2l-2.28-3.59c-0.04-0.07-0.08-0.14-0.11-0.21l-1.63-4.24c-0.02-0.06-0.04-0.13-0.06-0.19l-0.98-4.89
		c-0.01-0.05-0.02-0.11-0.02-0.16l-0.33-5.54v0l0-0.01l0-0.03l0-0.03l0,0l0,0V108v0c0-0.66,0.53-1.19,1.19-1.19l12.96,0l-1.65-0.63
		c-0.07-0.03-0.14-0.06-0.21-0.11l-3.59-2.28c-0.07-0.05-0.14-0.1-0.2-0.16l-2.94-2.93c-0.06-0.06-0.12-0.13-0.16-0.2l-2.28-3.59
		c-0.04-0.07-0.08-0.14-0.11-0.21l-1.63-4.24c-0.02-0.06-0.04-0.13-0.06-0.19l-0.98-4.89c-0.01-0.05-0.02-0.11-0.02-0.16l-0.33-5.54
		v0l0-0.01l0-0.03l0-0.02l0,0l0,0V55.17l0-0.02l0-0.03l0-0.01v0l0-0.02l0-0.03l0-0.01l0,0l0-0.02l0-0.03l0-0.01l0,0l0-0.02l0-0.03
		l0-0.01l0,0l0.01-0.02l0.01-0.02l0-0.01l0-0.01l0.01-0.02l0.01-0.02l0,0l0-0.01l0.01-0.03l0.01-0.02l0,0l0-0.01l0.01-0.03
		l0.01-0.02l0,0l0-0.01l0.01-0.03l0.01-0.01l0,0l0-0.01l0.01-0.03l0.01-0.01l0,0l0-0.01l0.02-0.03l0.01-0.01l0,0l0-0.01l0.02-0.03
		l0.01-0.01l0,0l0-0.01l0.02-0.02l0.01-0.01l0,0l0-0.01l0.02-0.02l0.01-0.01l0,0l0-0.01l0.01-0.01l0.02-0.03l0.02-0.02l0.02-0.03
		l0.02-0.02l0.02-0.02l0.03-0.02l0.03-0.02l0.02-0.01l0.02-0.01l0.03-0.02l0.03-0.02l0.02-0.01l0.02-0.01l0.03-0.02l0.03-0.02
		l0.02-0.01l0.02-0.01l0.03-0.01l0.03-0.02l0.02-0.01l0.02-0.01l0.03-0.01l0.03-0.01l0.02-0.01l0.02-0.01l0.03-0.01l0.04-0.01
		l0.03,0L66.19,54l0.03,0l0.04-0.01l0.03,0l0.02,0l0.03,0l0.04,0l0.02,0l25.28,0l0.26-4.42c0-0.05,0.01-0.11,0.02-0.16l0.98-4.89
		c0.01-0.07,0.03-0.13,0.06-0.19l1.63-4.24c0.03-0.07,0.06-0.14,0.11-0.21l2.28-3.59c0.05-0.07,0.1-0.14,0.16-0.2l2.93-2.93
		c0.06-0.06,0.13-0.12,0.2-0.16l3.59-2.28c0.07-0.04,0.14-0.08,0.21-0.11l4.24-1.63c0.06-0.02,0.13-0.04,0.19-0.06l4.89-0.98
		c0.05-0.01,0.11-0.02,0.16-0.02l5.54-0.33l0.03,0l0.04,0l26.4,0l0.02,0L145.65,27.57L145.65,27.57z M67.57,109.19v51.6l0.32,5.43
		l0.94,4.71l1.55,4.03l2.15,3.38l2.75,2.75l3.38,2.15l4.03,1.55l4.71,0.94l5.43,0.32l26.33,0l5.44-0.32l4.71-0.94l4.03-1.55
		l3.38-2.15l2.75-2.75l2.15-3.38l1.55-4.03l0.94-4.71l0.32-5.43v-26.38v-25.22l-25.22,0L67.57,109.19L67.57,109.19z M87.4,185.73
		l0.08,0.02l-0.16-0.02L87.4,185.73L87.4,185.73z M124.6,185.73l0.08,0l-0.16,0.02L124.6,185.73L124.6,185.73z M129.31,184.79
		l0.1-0.02l-0.19,0.06L129.31,184.79L129.31,184.79z M82.69,184.79l0.09,0.04l-0.19-0.06L82.69,184.79L82.69,184.79z M133.34,183.24
		l0.11-0.04l-0.21,0.11L133.34,183.24L133.34,183.24z M78.66,183.24l0.1,0.06l-0.21-0.11L78.66,183.24L78.66,183.24z M136.72,181.09
		l0.11-0.07l-0.2,0.16L136.72,181.09L136.72,181.09z M75.28,181.09l0.09,0.09l-0.2-0.16L75.28,181.09L75.28,181.09z M139.47,178.34
		l0.09-0.09l-0.16,0.2L139.47,178.34L139.47,178.34z M72.53,178.34l0.07,0.11l-0.16-0.2L72.53,178.34L72.53,178.34z M70.38,174.96
		l0.04,0.11l-0.11-0.21L70.38,174.96L70.38,174.96z M141.62,174.96l0.06-0.1l-0.11,0.21L141.62,174.96L141.62,174.96z M68.83,170.93
		l0.02,0.1l-0.06-0.19L68.83,170.93L68.83,170.93z M143.17,170.93l0.04-0.09l-0.06,0.19L143.17,170.93L143.17,170.93z
		 M144.11,166.22l0.02-0.08l-0.02,0.16L144.11,166.22L144.11,166.22z M67.89,166.22l0,0.08l-0.02-0.16L67.89,166.22L67.89,166.22z
		 M67.57,68.62l0.63,1.65c0.03,0.07,0.06,0.15,0.11,0.21l2.28,3.59c0.05,0.07,0.1,0.14,0.16,0.2l2.94,2.93
		c0.06,0.06,0.13,0.12,0.2,0.16l3.59,2.28c0.07,0.04,0.14,0.08,0.21,0.11l4.24,1.63c0.06,0.02,0.13,0.04,0.19,0.06l4.89,0.98
		c0.05,0.01,0.11,0.02,0.16,0.02l5.54,0.33l5.46,0.32l4.71,0.94l4.03,1.55l3.38,2.15l2.75,2.75l2.15,3.38l1.55,4.03l0.94,4.71
		l0.25,4.2l-25.12,0l-5.43-0.32l-4.71-0.94L78.66,104l-3.38-2.15l-2.75-2.75l-2.15-3.38l-1.55-4.03l-0.94-4.71l-0.32-5.43V68.62
		L67.57,68.62z M140.23,30.27l-4.71,0.94l-4.03,1.55l-3.38,2.15l-2.75,2.75l-2.15,3.38l-1.55,4.03l-0.94,4.71l-0.32,5.43v51.53
		l4.2-0.25l4.71-0.94l4.03-1.55l3.38-2.15l2.75-2.75l2.15-3.38l1.55-4.03l0.94-4.71l0.32-5.43V30.02L140.23,30.27L140.23,30.27z
		 M124.6,106.49l0.08,0l-0.16,0.02L124.6,106.49L124.6,106.49z M87.4,106.49l0.08,0.02l-0.16-0.02L87.4,106.49L87.4,106.49z
		 M82.69,105.55l0.09,0.04l-0.19-0.06L82.69,105.55L82.69,105.55z M129.31,105.55l0.1-0.02l-0.19,0.06L129.31,105.55L129.31,105.55z
		 M133.34,104l0.11-0.04l-0.21,0.11L133.34,104L133.34,104z M78.66,104l0.1,0.06l-0.21-0.11L78.66,104L78.66,104z M117.7,102.61
		l0-0.08l0.02,0.16L117.7,102.61L117.7,102.61z M136.72,101.85l0.11-0.07l-0.2,0.16L136.72,101.85L136.72,101.85z M75.28,101.85
		l0.09,0.09l-0.2-0.16L75.28,101.85L75.28,101.85z M139.47,99.1l0.09-0.09l-0.16,0.2L139.47,99.1L139.47,99.1z M72.53,99.1
		l0.07,0.11l-0.16-0.2L72.53,99.1L72.53,99.1z M116.76,97.9l-0.02-0.1l0.06,0.19L116.76,97.9L116.76,97.9z M141.62,95.72l0.06-0.1
		l-0.11,0.21L141.62,95.72L141.62,95.72z M70.38,95.72l0.04,0.11l-0.11-0.21L70.38,95.72L70.38,95.72z M118.02,94.55l-0.63-1.65
		c-0.03-0.07-0.06-0.15-0.11-0.21l-2.28-3.59c-0.05-0.07-0.1-0.14-0.16-0.2l-2.93-2.93c-0.06-0.06-0.13-0.12-0.2-0.16l-3.59-2.28
		c-0.07-0.04-0.14-0.08-0.21-0.11l-4.24-1.63c-0.06-0.02-0.13-0.04-0.19-0.06l-4.89-0.98c-0.05-0.01-0.11-0.02-0.16-0.02l-5.54-0.33
		l-5.46-0.32l-4.71-0.94l-4.03-1.55l-3.38-2.15l-2.75-2.75l-2.15-3.38l-1.55-4.03l-0.94-4.71l-0.25-4.2l25.12,0l5.43,0.32l4.71,0.94
		l4.03,1.55l3.38,2.15l2.75,2.75l2.15,3.38l1.55,4.03l0.94,4.71l0.32,5.43V94.55L118.02,94.55z M115.2,93.86l-0.04-0.11l0.11,0.21
		L115.2,93.86L115.2,93.86z M68.83,91.69l0.02,0.1l-0.06-0.19L68.83,91.69L68.83,91.69z M143.17,91.69l0.04-0.09l-0.06,0.19
		L143.17,91.69L143.17,91.69z M113.06,90.49l-0.07-0.11l0.16,0.2L113.06,90.49L113.06,90.49z M110.31,87.74l-0.09-0.09l0.2,0.16
		L110.31,87.74L110.31,87.74z M67.89,86.98l0,0.08l-0.02-0.16L67.89,86.98L67.89,86.98z M144.11,86.98l0.02-0.08l-0.02,0.16
		L144.11,86.98L144.11,86.98z M106.93,85.59l-0.1-0.06l0.21,0.11L106.93,85.59L106.93,85.59z M102.9,84.04L102.8,84l0.19,0.06
		L102.9,84.04L102.9,84.04z M98.18,83.09l-0.08-0.02l0.16,0.02L98.18,83.09L98.18,83.09z M87.4,80.08l0.08,0.02l-0.16-0.02
		L87.4,80.08L87.4,80.08z M82.69,79.13l0.09,0.04l-0.19-0.06L82.69,79.13L82.69,79.13z M78.66,77.58l0.1,0.06l-0.21-0.11
		L78.66,77.58L78.66,77.58z M117.7,76.19l0-0.08l0.02,0.16L117.7,76.19L117.7,76.19z M75.28,75.43l0.09,0.09l-0.2-0.16L75.28,75.43
		L75.28,75.43z M72.53,72.68l0.07,0.11l-0.16-0.2L72.53,72.68L72.53,72.68z M116.76,71.48l-0.02-0.1l0.06,0.19L116.76,71.48
		L116.76,71.48z M70.38,69.31l0.04,0.11l-0.11-0.21L70.38,69.31L70.38,69.31z M132.17,29.95l-1.65,0.63
		c-0.07,0.03-0.14,0.06-0.21,0.11l-3.59,2.28c-0.07,0.05-0.14,0.1-0.2,0.16l-2.93,2.93c-0.06,0.06-0.12,0.13-0.16,0.2l-2.28,3.59
		c-0.04,0.07-0.08,0.14-0.11,0.21l-1.63,4.24c-0.02,0.06-0.04,0.13-0.06,0.19l-0.98,4.89c-0.01,0.05-0.02,0.11-0.02,0.16l-0.33,5.54
		v0l0,0.01l0,0.03l0,0.03l0,0l0,0v12.96l-0.63-1.65c-0.03-0.07-0.06-0.15-0.11-0.21l-2.28-3.59c-0.05-0.07-0.1-0.14-0.16-0.2
		l-2.93-2.93c-0.06-0.06-0.13-0.12-0.2-0.16l-3.59-2.28c-0.07-0.04-0.14-0.08-0.21-0.11l-4.24-1.63c-0.06-0.02-0.13-0.04-0.19-0.06
		l-4.89-0.98c-0.05-0.01-0.11-0.02-0.16-0.02l-4.36-0.26l0.25-4.27l0.94-4.71l1.55-4.03l2.15-3.38l2.75-2.75l3.38-2.15l4.03-1.55
		l4.71-0.94l5.43-0.32L132.17,29.95L132.17,29.95z M115.2,67.45l-0.04-0.11l0.11,0.21L115.2,67.45L115.2,67.45z M68.83,65.27
		l0.02,0.1l-0.06-0.19L68.83,65.27L68.83,65.27z M113.06,64.07l-0.07-0.11l0.16,0.2L113.06,64.07L113.06,64.07z M110.31,61.32
		l-0.09-0.09l0.2,0.16L110.31,61.32L110.31,61.32z M67.89,60.56l0,0.08l-0.02-0.16L67.89,60.56L67.89,60.56z M106.93,59.17
		l-0.1-0.06l0.21,0.11L106.93,59.17L106.93,59.17z M102.9,57.62l-0.09-0.04l0.19,0.06L102.9,57.62L102.9,57.62z M98.18,56.68
		l-0.08-0.02l0.16,0.02L98.18,56.68L98.18,56.68z M120.72,49.78l-0.02,0.08l0.02-0.16L120.72,49.78L120.72,49.78z M94.3,49.78
		l-0.02,0.08l0.02-0.16L94.3,49.78L94.3,49.78z M95.24,45.07l-0.04,0.09l0.06-0.19L95.24,45.07L95.24,45.07z M121.66,45.07
		l-0.04,0.09l0.06-0.19L121.66,45.07L121.66,45.07z M96.8,41.03l-0.06,0.1l0.11-0.21L96.8,41.03L96.8,41.03z M123.21,41.03
		l-0.06,0.1l0.11-0.21L123.21,41.03L123.21,41.03z M98.94,37.66l-0.09,0.09l0.16-0.2L98.94,37.66L98.94,37.66z M125.36,37.66
		l-0.09,0.09l0.16-0.2L125.36,37.66L125.36,37.66z M101.69,34.91l-0.11,0.07l0.2-0.16L101.69,34.91L101.69,34.91z M128.11,34.91
		L128,34.98l0.2-0.16L128.11,34.91L128.11,34.91z M131.49,32.76l-0.11,0.04l0.21-0.11L131.49,32.76L131.49,32.76z M105.07,32.76
		l-0.11,0.04l0.21-0.11L105.07,32.76L105.07,32.76z M135.52,31.21l-0.1,0.02l0.19-0.06L135.52,31.21L135.52,31.21z M109.1,31.21
		l-0.1,0.02l0.19-0.06L109.1,31.21L109.1,31.21z M140.23,30.27l-0.08,0l0.16-0.02L140.23,30.27L140.23,30.27z M113.82,30.27l-0.08,0
		l0.16-0.02L113.82,30.27L113.82,30.27z"/>
</g>
</svg>
